<svg width="64" height="64" viewBox="0 0 64 64" fill="none" xmlns="http://www.w3.org/2000/svg">
<path d="M43.7126 29.4275L31.8325 22.2995C30.1459 21.2875 28 22.5025 28 24.4695C28 25.867 26.8671 27 25.4695 27H19C17.3432 27 16 28.3432 16 30V34.5C16 36.1569 17.3432 37.5 19 37.5H25.6502C26.948 37.5 28 38.5521 28 39.8498C28 41.6763 29.9926 42.8045 31.5588 41.8648L43.7126 34.5725C45.6546 33.4073 45.6546 30.5927 43.7126 29.4275Z" fill="#FFDF6D"/>
<path fill-rule="evenodd" clip-rule="evenodd" d="M43.1981 33.715C44.4927 32.9382 44.4927 31.0618 43.1981 30.285L31.318 23.157C30.2979 22.5449 29 23.2797 29 24.4694C29 26.4193 27.4193 28 25.4695 28H19C17.8955 28 17 28.8954 17 30V34.5C17 35.6045 17.8955 36.5 19 36.5H25.6502C27.5003 36.5 29 37.9997 29 39.8498C29 40.899 30.1446 41.547 31.0443 41.0072L43.1981 33.715ZM44.227 28.57C46.8164 30.1236 46.8164 33.8763 44.2271 35.4299L32.0733 42.7222C29.8406 44.0618 27 42.4536 27 39.8498C27 39.1043 26.3957 38.5 25.6502 38.5H19C16.7909 38.5 15 36.7091 15 34.5V30C15 27.7908 16.7909 26 19 26H25.4695C26.3148 26 27 25.3147 27 24.4694C27 21.7251 29.9938 20.0301 32.347 21.442L44.227 28.57Z" fill="black"/>
</svg>
