<?xml version="1.0" encoding="utf-8"?>
<!-- Generator: Adobe Illustrator 22.0.0, SVG Export Plug-In . SVG Version: 6.00 Build 0)  -->
<svg version="1.1" id="Слой_1" xmlns="http://www.w3.org/2000/svg" xmlns:xlink="http://www.w3.org/1999/xlink" x="0px" y="0px"
	 viewBox="0 0 100 100" style="enable-background:new 0 0 100 100;" xml:space="preserve">
<style type="text/css">
	.st0{fill:url(#SVGID_1_);}
	.st1{fill:url(#SVGID_2_);}
	.st2{fill:url(#SVGID_3_);}
	.st3{fill:url(#SVGID_4_);}
	.st4{fill:url(#SVGID_5_);}
	.st5{fill:url(#SVGID_6_);}
	.st6{fill:url(#SVGID_7_);}
	.st7{fill:url(#SVGID_8_);}
	.st8{fill:url(#SVGID_9_);}
	.st9{fill:url(#SVGID_10_);}
	.st10{fill:url(#SVGID_11_);}
	.st11{fill:url(#SVGID_12_);}
	.st12{fill:#223C50;}
	.st13{fill:url(#SVGID_13_);}
	.st14{fill:#E9F4FC;}
	.st15{fill:#FCF6D2;}
</style>
<g>
	
		<linearGradient id="SVGID_1_" gradientUnits="userSpaceOnUse" x1="29.5695" y1="26.2773" x2="37.7999" y2="26.2773" gradientTransform="matrix(0.9509 0.3096 0.3096 -0.9509 -4.4588 88.1014)">
		<stop  offset="0" style="stop-color:#DFF5FB"/>
		<stop  offset="0.2502" style="stop-color:#D3EEF6"/>
		<stop  offset="1" style="stop-color:#AED8E6"/>
	</linearGradient>
	<path class="st0" d="M33.4,84.6L31,83.9c-1.5-0.5-2.3-2.1-1.8-3.6l5.2-16.1c0.5-1.5,2.1-2.3,3.6-1.8l2.4,0.8
		c1.5,0.5,2.3,2.1,1.8,3.6l-5.2,16C36.5,84.3,34.9,85.1,33.4,84.6z"/>
	
		<linearGradient id="SVGID_2_" gradientUnits="userSpaceOnUse" x1="5.3618" y1="18.4807" x2="13.591" y2="18.4807" gradientTransform="matrix(-0.9509 0.3096 -0.3096 -0.9509 74.996 88.1014)">
		<stop  offset="0" style="stop-color:#DFF5FB"/>
		<stop  offset="0.2502" style="stop-color:#D3EEF6"/>
		<stop  offset="1" style="stop-color:#AED8E6"/>
	</linearGradient>
	<path class="st1" d="M62.6,84.6l2.4-0.8c1.5-0.5,2.3-2.1,1.8-3.6l-5.2-16.1c-0.5-1.5-2.1-2.3-3.6-1.8l-2.4,0.8
		c-1.5,0.5-2.3,2.1-1.8,3.6L59,82.8C59.5,84.3,61.1,85.1,62.6,84.6z"/>
	<g>
		
			<linearGradient id="SVGID_3_" gradientUnits="userSpaceOnUse" x1="35.2617" y1="82.3266" x2="52.6345" y2="46.8954" gradientTransform="matrix(1 0 0 -1 0 100)">
			<stop  offset="0" style="stop-color:#1570A3"/>
			<stop  offset="1" style="stop-color:#B9D7E4"/>
		</linearGradient>
		<circle class="st2" cx="49.2" cy="46.1" r="29.7"/>
		
			<linearGradient id="SVGID_4_" gradientUnits="userSpaceOnUse" x1="-80.7154" y1="78.4749" x2="-68.9812" y2="52.7206" gradientTransform="matrix(0.7071 -0.7071 -0.7071 -0.7071 139.7763 37.7241)">
			<stop  offset="0" style="stop-color:#F28B6C"/>
			<stop  offset="1" style="stop-color:#C7586B"/>
		</linearGradient>
		<path class="st3" d="M70.2,67.1c11.6-11.6,11.6-30.4,0-42l-42,42C39.8,78.7,58.6,78.7,70.2,67.1z"/>
		
			<linearGradient id="SVGID_5_" gradientUnits="userSpaceOnUse" x1="-95.7174" y1="70.6131" x2="-44.8183" y2="45.9255" gradientTransform="matrix(0.7071 -0.7071 -0.7071 -0.7071 139.7763 37.7241)">
			<stop  offset="0" style="stop-color:#DFF5FB"/>
			<stop  offset="0.2502" style="stop-color:#D3EEF6"/>
			<stop  offset="1" style="stop-color:#AED8E6"/>
		</linearGradient>
		<circle class="st4" cx="49.2" cy="46.1" r="23.9"/>
		
			<linearGradient id="SVGID_6_" gradientUnits="userSpaceOnUse" x1="-75.8167" y1="78.2152" x2="-69.8734" y2="56.2707" gradientTransform="matrix(0.7071 -0.7071 -0.7071 -0.7071 139.7763 37.7241)">
			<stop  offset="0" style="stop-color:#DFF5FB"/>
			<stop  offset="0.2502" style="stop-color:#D3EEF6"/>
			<stop  offset="1" style="stop-color:#AED8E6"/>
		</linearGradient>
		<path class="st5" d="M66.1,62.9c9.3-9.3,9.3-24.4,0-33.7L32.3,62.9C41.6,72.3,56.7,72.3,66.1,62.9z"/>
		
			<linearGradient id="SVGID_7_" gradientUnits="userSpaceOnUse" x1="-90.5267" y1="68.0955" x2="-49.8887" y2="48.3848" gradientTransform="matrix(0.7071 -0.7071 -0.7071 -0.7071 139.7763 37.7241)">
			<stop  offset="0" style="stop-color:#F28B6C"/>
			<stop  offset="1" style="stop-color:#C7586B"/>
		</linearGradient>
		<circle class="st6" cx="49.2" cy="46.1" r="19"/>
		
			<linearGradient id="SVGID_8_" gradientUnits="userSpaceOnUse" x1="-84.1348" y1="73.4712" x2="-72.2482" y2="57.9272" gradientTransform="matrix(0.7071 -0.7071 -0.7071 -0.7071 139.7763 37.7241)">
			<stop  offset="0" style="stop-color:#F28B6C"/>
			<stop  offset="1" style="stop-color:#C7586B"/>
		</linearGradient>
		<path class="st7" d="M62.7,59.5c7.4-7.4,7.4-19.5,0-26.9l-27,26.9C43.2,67,55.2,67,62.7,59.5z"/>
		
			<linearGradient id="SVGID_9_" gradientUnits="userSpaceOnUse" x1="-84.5056" y1="65.175" x2="-55.7702" y2="51.2375" gradientTransform="matrix(0.7071 -0.7071 -0.7071 -0.7071 139.7763 37.7241)">
			<stop  offset="0" style="stop-color:#DFF5FB"/>
			<stop  offset="0.2502" style="stop-color:#D3EEF6"/>
			<stop  offset="1" style="stop-color:#AED8E6"/>
		</linearGradient>
		<circle class="st8" cx="49.2" cy="46.1" r="13.5"/>
		
			<linearGradient id="SVGID_10_" gradientUnits="userSpaceOnUse" x1="-84.2269" y1="68.0868" x2="-67.4638" y2="52.8476" gradientTransform="matrix(0.7071 -0.7071 -0.7071 -0.7071 139.7763 37.7241)">
			<stop  offset="0" style="stop-color:#DFF5FB"/>
			<stop  offset="0.2502" style="stop-color:#D3EEF6"/>
			<stop  offset="1" style="stop-color:#AED8E6"/>
		</linearGradient>
		<path class="st9" d="M58.7,55.6c5.3-5.3,5.3-13.8,0-19l-19,19C44.9,60.9,53.5,60.9,58.7,55.6z"/>
		
			<linearGradient id="SVGID_11_" gradientUnits="userSpaceOnUse" x1="-78.8502" y1="62.432" x2="-61.2946" y2="53.917" gradientTransform="matrix(0.7071 -0.7071 -0.7071 -0.7071 139.7763 37.7241)">
			<stop  offset="0" style="stop-color:#F28B6C"/>
			<stop  offset="1" style="stop-color:#C7586B"/>
		</linearGradient>
		<circle class="st10" cx="49.2" cy="46.1" r="8.2"/>
		
			<linearGradient id="SVGID_12_" gradientUnits="userSpaceOnUse" x1="-75.1432" y1="72.2568" x2="-68.2855" y2="52.5982" gradientTransform="matrix(0.7071 -0.7071 -0.7071 -0.7071 139.7763 37.7241)">
			<stop  offset="0" style="stop-color:#F28B6C"/>
			<stop  offset="1" style="stop-color:#C7586B"/>
		</linearGradient>
		<path class="st11" d="M55,51.9c3.2-3.2,3.2-8.4,0-11.6L43.4,51.9C46.6,55.1,51.8,55.1,55,51.9z"/>
		<circle class="st12" cx="49.2" cy="46.1" r="3.5"/>
	</g>
	<g>
		
			<linearGradient id="SVGID_13_" gradientUnits="userSpaceOnUse" x1="57.8111" y1="58.5932" x2="57.8111" y2="50.3257" gradientTransform="matrix(0.977 0.2133 0.2133 -0.977 -11.392 86.0785)">
			<stop  offset="0" style="stop-color:#1570A3"/>
			<stop  offset="1" style="stop-color:#B9D7E4"/>
		</linearGradient>
		<path class="st13" d="M51.2,43.9l12.4-7.3l0.6,0.8l-11.8,8.1C52.3,45.4,50.9,45.1,51.2,43.9z"/>
		<path class="st14" d="M51.2,44.5L48.9,46c0,0-0.2,0.3,0.2,0.5l2.5-1.4L51.2,44.5z"/>
		<path class="st15" d="M71.1,32.3c0,0,2,2.4-0.7,3.7s-6.3,1.4-6.3,1.4L63.8,37L71.1,32.3z"/>
		<path class="st12" d="M63.8,36.9l7.3-4.7c0,0,0.3,1.1-1.3,2.3c-1.3,1-4.6,2.3-5.8,2.6L63.8,36.9z"/>
		<path class="st12" d="M71.1,32.3c0,0-1.3-2.8-4.1-0.4c-2,1.6-3.4,4.8-3.4,4.8l0.2,0.3L71.1,32.3z"/>
		<path class="st15" d="M71.1,32.3c0,0-1.2-1.1-2.4-0.5c-1.2,0.6-4.9,5.2-4.9,5.2L71.1,32.3z"/>
	</g>
</g>
</svg>
